<svg xmlns="http://www.w3.org/2000/svg" viewBox="0 0 486.4 486.4" xml:space="preserve"><path style="fill:#d7e1f2" d="M305.487 44.938V83.25H180.913V44.938h-99.1V476.9h322.774V44.938z"/><path style="fill:#d71920" d="M180.913 9.5h124.574v73.75H180.913z"/><path d="M404.587 35.439h-89.6V9.5c0-5.246-4.254-9.5-9.5-9.5H180.913c-5.246 0-9.5 4.254-9.5 9.5v25.939h-89.6c-5.246 0-9.5 4.254-9.5 9.5V476.9c0 5.246 4.254 9.5 9.5 9.5h322.774c5.246 0 9.5-4.254 9.5-9.5V44.939a9.5 9.5 0 0 0-9.5-9.5m-108.6 38.31H190.413V19h105.574zm99.1 393.651H91.313V54.439h80.1V83.25c0 5.246 4.254 9.5 9.5 9.5h124.574c5.246 0 9.5-4.254 9.5-9.5V54.439h80.1z"/><path d="M278.159 141.596H131.618c-5.246 0-9.5-4.254-9.5-9.5s4.254-9.5 9.5-9.5h146.541c5.246 0 9.5 4.254 9.5 9.5s-4.254 9.5-9.5 9.5m79.497 48.847H131.618c-5.246 0-9.5-4.254-9.5-9.5s4.254-9.5 9.5-9.5h226.038c5.246 0 9.5 4.254 9.5 9.5s-4.254 9.5-9.5 9.5m0 48.848H131.618c-5.246 0-9.5-4.254-9.5-9.5s4.254-9.5 9.5-9.5h226.038c5.246 0 9.5 4.254 9.5 9.5s-4.254 9.5-9.5 9.5m0 45.973H131.618c-5.246 0-9.5-4.254-9.5-9.5s4.254-9.5 9.5-9.5h226.038c5.246 0 9.5 4.254 9.5 9.5s-4.254 9.5-9.5 9.5m0-143.668h-31.607c-5.246 0-9.5-4.254-9.5-9.5s4.254-9.5 9.5-9.5h31.607c5.246 0 9.5 4.254 9.5 9.5s-4.254 9.5-9.5 9.5"/><path style="fill:#d7e1f2" d="M334.972 339.48c-9.281-9.186-22.102-14.868-36.265-14.868-13.363 0-25.53 5.063-34.657 13.351l36.227 35.858z"/><path style="fill:#d71920" d="M215.904 337.963c-10.219 9.279-16.629 22.603-16.629 37.412 0 14.018 5.74 26.708 15.021 35.895l37.835-37.449z"/><path d="M214.296 420.769a9.47 9.47 0 0 1-6.683-2.748c-11.503-11.386-17.838-26.531-17.838-42.647 0-16.852 7.196-33.051 19.742-44.444a9.5 9.5 0 0 1 13.069.281l36.227 35.857a9.5 9.5 0 0 1 .001 13.504l-37.835 37.449a9.47 9.47 0 0 1-6.683 2.748m2.026-69.026c-4.861 6.879-7.546 15.137-7.546 23.631 0 7.818 2.188 15.306 6.277 21.779l23.575-23.333z"/><path style="fill:#3b4d81" d="M262.443 411.269c9.281 9.186 22.102 14.868 36.265 14.868 28.325 0 51.286-22.727 51.286-50.763 0-14.018-5.74-26.708-15.021-35.895z"/><path d="M341.656 332.73c-11.477-11.36-26.728-17.616-42.946-17.616-15.234 0-29.811 5.618-41.044 15.819a9.5 9.5 0 0 0-.296 13.785l29.405 29.105-31.013 30.697a9.5 9.5 0 0 0 0 13.504c11.477 11.36 26.73 17.616 42.949 17.616 33.517 0 60.786-27.034 60.786-60.263-.002-16.115-6.337-31.259-17.839-42.644m-62.925 6.398a42.1 42.1 0 0 1 19.976-5.016c7.885 0 15.437 2.142 21.973 6.147l-20.403 20.195zm19.976 77.509c-7.887 0-15.438-2.142-21.973-6.147l37.611-37.228 19.87-19.667c4.09 6.474 6.278 13.961 6.278 21.779 0 22.753-18.745 41.263-41.786 41.263M247.95 53.2h-32.3c-5.246 0-9.5-4.254-9.5-9.5s4.254-9.5 9.5-9.5h32.3c5.246 0 9.5 4.254 9.5 9.5s-4.254 9.5-9.5 9.5"/></svg>